<?xml version="1.0" encoding="utf-8"?>
<!-- Generator: Adobe Illustrator 18.1.1, SVG Export Plug-In . SVG Version: 6.00 Build 0)  -->
<svg version="1.1" id="Layer_1" xmlns="http://www.w3.org/2000/svg" xmlns:xlink="http://www.w3.org/1999/xlink" x="0px" y="0px"
	 viewBox="0 72 612 648" enable-background="new 0 72 612 648" xml:space="preserve">
<g id="Layer_1_1_">
	<g>
		<path fill="#FFFFFF" d="M409.548,305.517c-17.985,0.474-34.96,11.454-34.96,11.454s-5.57,23.066-12.209,50.704
			c5.65-2.389,38.877-15.032,51.431-28.55C427.989,323.859,427.536,305.043,409.548,305.517z"/>
		<path fill="#FFFFFF" d="M400.791,272.974c-7.455-2.485-20.944,6.746-20.944,6.746l-4.597,19.164c0,0,13.893-5.586,20.929-9.225
			C403.211,286.02,408.245,275.462,400.791,272.974z"/>
		<path fill="#FFFFFF" d="M306,104.755c-162.818,0-294.807,131.99-294.807,294.807S143.182,694.37,306,694.37
			s294.807-131.99,294.807-294.807S468.818,104.755,306,104.755z M450.491,340.071c-20.59,28.048-75.876,44.974-90.56,51.203
			c-8.043,33.606-15.734,66.047-15.873,67.741c-0.289,3.569-36.632,16.313-35.899,12.861c0.736-3.455,17.409-67.691,17.409-67.691
			c-37.926,15.011-155.671,56.271-161.565,66.561c-5.703,4.277-9.927,26.564,6.749,29.396c6.254,1.062,32.891,0.868,47.585-43.776
			l31.299-12.886c-7.495,17.028-32.953,109.589-92.959,91.204c-23.669-6.817-33.442-35.644-27.906-55.92
			c6.186-19.023,19.697-27.056,32.503-33.387c9.881-4.391,58.454-26.139,58.454-26.139s19.411-84.845,21.067-89.815
			c1.657-4.97,7.307-9.425,11.017-11.036c21.277-9.234,90.209-38.772,90.209-38.772s-2.836,21.883-7.95,25.307
			c-4.345,2.904-55.76,23.795-60.991,26.517c-1.918,0.998-5.271,3.581-6.842,8.286c-2.713,8.12-4.523,17.56-4.523,17.56
			l40.41-15.888c0,0-2.137,16.184-6.469,19.586c-3.473,2.731-24.916,11.076-33.258,13.985c-2.057,0.717-3.944,2.965-4.794,5.73
			c-2.54,8.295-7.076,24.433-2.703,26.462c6.58-2.174,71.722-24.71,75.602-27.752c3.877-3.042,24.818-104.274,24.818-104.274
			s33.747-15.648,46.966-19.534c6.238-1.838,17.757,0.48,19.793,7.793c2.282,8.178-5.336,21.6-5.958,22.179
			c3.356-0.071,22.453-0.074,32.229,7.642C461.499,303.574,462.296,323.995,450.491,340.071z"/>
	</g>
</g>
<g id="RG2">
</g>
<g id="RG3">
</g>
</svg>
