<?xml version="1.0" encoding="utf-8"?>
<!-- Generator: Adobe Illustrator 16.0.4, SVG Export Plug-In . SVG Version: 6.00 Build 0)  -->
<!DOCTYPE svg PUBLIC "-//W3C//DTD SVG 1.1//EN" "http://www.w3.org/Graphics/SVG/1.1/DTD/svg11.dtd">
<svg version="1.1" id="Layer_1" xmlns="http://www.w3.org/2000/svg" xmlns:xlink="http://www.w3.org/1999/xlink" x="0px" y="0px"
	 width="123.333px" height="112.667px" viewBox="0 0 123.333 112.667" enable-background="new 0 0 123.333 112.667"
	 xml:space="preserve">
<rect x="-196.001" y="-265.333" display="none" width="503.569" height="706.63"/>
<g id="yGBNdi.tif" display="none">
	
		<image display="inline" overflow="visible" width="925" height="694" id="Layer_0_4_" xlink:href="9E917EDB07DE6C9F.png"  transform="matrix(0.9997 0.0246 -0.0246 0.9997 -166.3633 -45.1001)">
	</image>
</g>
<path fill="#FFFFFF" d="M112.626,18.874c-3.96-1.391-8.173,0.061-11.112,0.707c-2.939,0.646-8.801,2.793-8.801,2.793l1.546-6.744
	c0,0,5.654-2.299,6.699-2.823c1.118-0.556,1.861,0.139,0.563,1.573c0,0-2.193,2.317-6.155,3.647
	c-0.544,0.343,3.599,0.217,7.306-1.216c3.661-1.542,6.491-3.683,6.568-5.979c0.151-4.46-4.375-3.564-7.337-2.571
	c-2.962,0.993-16.92,7.038-16.92,7.038s-7.545,36.473-8.942,37.568c-1.397,1.096-23.671,9.37-26.042,10.153
	c-2.101-0.975,0.309-11.595,0.309-11.595s9.117-3.403,13.179-5.197c1.898-2.927,2.33-7.057,2.33-7.057l-14.815,6.237l1.474-9.817
	c0,0,22.973-9.228,24.814-10.46c1.842-1.232,2.9-8.217,2.9-8.217L44.731,32.245l0.603,4.647l-1.628,9.513
	c0,0-2.578,2.309-3.832,3.345c5.327,2.617-2.952,19.754-2.952,19.754s-18.037,7.34-21.597,8.923
	c-4.614,2.281-9.48,5.175-11.71,12.028c-1.995,7.305,1.27,15.898,9.798,18.354c2.227,0.572,6.53,0.524,10.217-0.92
	c16.244-5.198,20.574-25.805,23.273-31.938l-11.276,4.643c-2.542,4.424-4.496,7.144-7.43,10.876
	c-2.491,3.083-7.461,5.279-9.714,4.896c-6.007-1.02-4.486-9.05-2.431-10.591c2.122-3.707,44.544-18.572,58.207-23.98l-7.201,28.002
	l11.939-5.026l12.923-58.493c0,0,10.276-4.872,15.959-4.221c5.683,0.65,6.143,5.358,5.637,7.768
	c-0.242,1.151-0.155,5.131-6.628,9.551c-4.395,3.001-11.049,5.8-15.468,7.493l-2.035,8.75c10.666-4.43,20.142-8.704,22.376-10.688
	c0.893-0.292,5.215-4.441,6.886-8.138C121.957,31.003,120.002,21.938,112.626,18.874z"/>
</svg>
